<svg xmlns="http://www.w3.org/2000/svg" style="display:none">
  <symbol id="icon-archive-box" viewBox="0 0 16 16" fill="none">
    <path d="M16 2H0V5H16V2Z" fill="currentColor" />
    <path d="M1 7H5V9H11V7H15V15H1V7Z" fill="currentColor" />
  </symbol>

  <symbol id="icon-donut" viewBox="0 0 92 92">
    <path
      d="M46 59.696c7.564 0 13.696-6.132 13.696-13.696S53.564 32.304 46 32.304 32.304 38.436 32.304 46 38.436 59.696 46 59.696ZM1 50.565s9.715 9.13 17.657 9.13c5.35 0 11.504-4.143 14.952-6.847"
      fill="none"
      stroke="currentColor"
      stroke-width="2"
    />
    <path
      d="M54.478 56.151c2.189 1.896 5.05 3.545 8.384 3.545 7.846 0 7.846-9.13 15.691-9.13 5.005 0 8.945 3.714 11.143 6.404"
      fill="none"
      stroke="currentColor"
      stroke-width="2"
    />
    <path
      d="m57.087 23.174 6.522-9.13m14.782 9.565L81 19.696m-35.652-5.652-3.913-5.218m-2.609 14.348-6.522 1.304m33.913 7.826 1.305 6.522m16.956-1.304-6.522 6.522M23.609 14.478l-3.913-3.913m2.174 21.739-2.61-5.217M16.652 49.26l3.913-6.52M7.522 37.522v-5.218M23.5 84.98A44.8 44.8 0 0 0 46 91c24.853 0 45-20.147 45-45S70.853 1 46 1 1 21.147 1 46c0 8.196 2.191 15.88 6.02 22.5"
      fill="none"
      stroke="currentColor"
      stroke-width="2"
      stroke-linecap="round"
    />
  </symbol>

  <symbol id="icon-escape" viewBox="0 0 32 32">
    <path stroke="currentColor" stroke-linecap="round" stroke-linejoin="round" stroke-width="2" d="M8.5 23.5l15-15M23.5 23.5l-15-15"/>
  </symbol>

  <symbol id="icon-github" viewBox="0 0 24 24">
    <path
      d="M12 .53a11.76 11.76 0 0 0-3.72 22.917
         c.589.103.81-.25.81-.558
         0-.28-.015-1.206-.015-2.19
         -2.955.543-3.72-.72-3.955-1.382
         a4.3 4.3 0 0 0-1.205-1.661
         c-.412-.22-1-.765-.015-.78
         a2.35 2.35 0 0 1 1.808 1.206
         a2.513 2.513 0 0 0 3.425.97
         a2.48 2.48 0 0 1 .75-1.573
         c-2.616-.294-5.35-1.308-5.35-5.806
         a4.58 4.58 0 0 1 1.205-3.16
         a4.23 4.23 0 0 1 .117-3.117
         S6.84 5.087 9.09 6.6
         a11.1 11.1 0 0 1 5.88 0
         c2.25-1.529 3.234-1.205 3.234-1.205
         .435.986.478 2.1.118 3.116
         a4.55 4.55 0 0 1 1.205 3.16
         c0 4.514-2.749 5.513-5.365 5.807
         a2.8 2.8 0 0 1 .794 2.176
         c0 1.573-.015 2.837-.015 3.234
         0 .308.22.676.808.558
         A11.766 11.766 0 0 0 12 .53"
      fill="currentColor"
    />
  </symbol>

  <symbol id="icon-grid" viewBox="0 0 24 24">
    <path
      d="M3 3h8v10H3V3zm2 2v6h4V5H5zm8-2h8v6h-8V3zm2 2v2h4V5h-4zm-2 6h8v10h-8V11zm2 2v6h4v-6h-4zM3 15h8v6H3v-6zm2 2v2h4v-2H5z"
      fill="currentColor"
    />
  </symbol>

  <symbol id="icon-linkedin" viewBox="-143 145 512 512">
    <path
      fill="currentColor"
      d="M329,145h-432c-22.1,0-40,17.9-40,40v432c0,22.1,17.9,40,40,40h432c22.1,0,40-17.9,40-40V185C369,162.9,351.1,145,329,145z M41.4,508.1H-8.5V348.4h49.9V508.1z M15.1,328.4h-0.4c-18.1,0-29.8-12.2-29.8-27.7c0-15.8,12.1-27.7,30.5-27.7c18.4,0,29.7,11.9,30.1,27.7C45.6,316.1,33.9,328.4,15.1,328.4z M241,508.1h-56.6v-82.6c0-21.6-8.8-36.4-28.3-36.4c-14.9,0-23.2,10-27,19.6c-1.4,3.4-1.2,8.2-1.2,13.1v86.3H71.8c0,0,0.7-146.4,0-159.7h56.1v25.1c3.3-11,21.2-26.6,49.8-26.6c35.5,0,63.3,23,63.3,72.4V508.1z"
    />
  </symbol>

  <symbol id="icon-panel-left" viewBox="0 0 32 32">
    <path d="M28 4H4a2 2 0 0 0-2 2v20a2 2 0 0 0 2 2h24a2 2 0 0 0 2-2V6a2 2 0 0 0-2-2Zm0 22H12V6h16Z" />
    <path d="M0 0h32v32H0z" fill="none" />
  </symbol>

  <symbol id="icon-panel-right" viewBox="0 0 21 21">
  <g
    fill="none"
    fill-rule="evenodd"
    stroke="currentColor"
    stroke-linecap="round"
    stroke-linejoin="round"
    transform="translate(3 3)"
  >
    <path d="m2.5.5h10c1.1045695 0 2 .8954305 2 2v10c0 1.1045695-.8954305 2-2 2h-10c-1.1045695 0-2-.8954305-2-2v-10c0-1.1045695.8954305-2 2-2z" />
    <path d="m12.5 11.5v-8" />
  </g>
  </symbol>

  <symbol id="icon-plus" viewBox="0 0 24 24">
    <path d="M0 0h24v24H0z" fill="none" />
    <path
      d="M12 5l0 14M5 12l14 0"
      fill="none"
      stroke="currentColor"
      stroke-width="2"
      stroke-linecap="round"
      stroke-linejoin="round"
    />
  </symbol>

  <symbol id="icon-spinner" viewBox="0 0 24 24">
    <path
      d="M21 12a9 9 0 1 1-6.219-8.56"
      fill="none"
      stroke="currentColor"
      stroke-width="2"
      stroke-linecap="round"
      stroke-linejoin="round"
    />
  </symbol>

  <symbol id="icon-trash" viewBox="0 0 24 24">
    <path 
      d="M18 6L17.1991 18.0129C17.129 19.065 17.0939 19.5911 16.8667 19.99C16.6666 20.3412 16.3648 20.6235 16.0011 20.7998C15.588 21 15.0607 21 14.0062 21H9.99377C8.93927 21 8.41202 21 7.99889 20.7998C7.63517 20.6235 7.33339 20.3412 7.13332 19.99C6.90607 19.5911 6.871 19.065 6.80086 18.0129L6 6M4 6H20M16 6L15.7294 5.18807C15.4671 4.40125 15.3359 4.00784 15.0927 3.71698C14.8779 3.46013 14.6021 3.26132 14.2905 3.13878C13.9376 3 13.523 3 12.6936 3H11.3064C10.477 3 10.0624 3 9.70951 3.13878C9.39792 3.26132 9.12208 3.46013 8.90729 3.71698C8.66405 4.00784 8.53292 4.40125 8.27064 5.18807L8 6" 
      fill="currentColor"
      stroke="currentColor" 
      stroke-width="2" 
      stroke-linecap="round" 
      stroke-linejoin="round" 
    />
  </symbol>

  <symbol id="icon-arrow-up-left" viewBox="0 0 16 16">
    <path
      d="M5 1H4L0 5L4 9H5V6H11C12.6569 6 14 7.34315 14 9C14 10.6569 12.6569 12 11 12H4V14H11C13.7614 14 16 11.7614 16 9C16 6.23858 13.7614 4 11 4H5V1Z"
      fill="currentColor"
    />
  </symbol>
</svg>
