<svg xmlns="http://www.w3.org/2000/svg" style="display:none">
  <symbol id="icon-archive-box" viewBox="0 0 16 16" fill="none">
    <path d="M16 2H0V5H16V2Z" fill="currentColor" />
    <path d="M1 7H5V9H11V7H15V15H1V7Z" fill="currentColor" />
  </symbol>

  <symbol id="icon-donut" viewBox="0 0 92 92">
    <path
      d="M46 59.696c7.564 0 13.696-6.132 13.696-13.696S53.564 32.304 46 32.304 32.304 38.436 32.304 46 38.436 59.696 46 59.696ZM1 50.565s9.715 9.13 17.657 9.13c5.35 0 11.504-4.143 14.952-6.847"
      fill="none"
      stroke="currentColor"
      stroke-width="2"
    />
    <path
      d="M54.478 56.151c2.189 1.896 5.05 3.545 8.384 3.545 7.846 0 7.846-9.13 15.691-9.13 5.005 0 8.945 3.714 11.143 6.404"
      fill="none"
      stroke="currentColor"
      stroke-width="2"
    />
    <path
      d="m57.087 23.174 6.522-9.13m14.782 9.565L81 19.696m-35.652-5.652-3.913-5.218m-2.609 14.348-6.522 1.304m33.913 7.826 1.305 6.522m16.956-1.304-6.522 6.522M23.609 14.478l-3.913-3.913m2.174 21.739-2.61-5.217M16.652 49.26l3.913-6.52M7.522 37.522v-5.218M23.5 84.98A44.8 44.8 0 0 0 46 91c24.853 0 45-20.147 45-45S70.853 1 46 1 1 21.147 1 46c0 8.196 2.191 15.88 6.02 22.5"
      fill="none"
      stroke="currentColor"
      stroke-width="2"
      stroke-linecap="round"
    />
  </symbol>

  <symbol id="icon-escape" viewBox="0 0 32 32">
    <path stroke="currentColor" stroke-linecap="round" stroke-linejoin="round" stroke-width="2" d="M8.5 23.5l15-15M23.5 23.5l-15-15"/>
  </symbol>

  <symbol id="icon-github" viewBox="0 0 24 24">
    <path
      d="M12 .53a11.76 11.76 0 0 0-3.72 22.917
         c.589.103.81-.25.81-.558
         0-.28-.015-1.206-.015-2.19
         -2.955.543-3.72-.72-3.955-1.382
         a4.3 4.3 0 0 0-1.205-1.661
         c-.412-.22-1-.765-.015-.78
         a2.35 2.35 0 0 1 1.808 1.206
         a2.513 2.513 0 0 0 3.425.97
         a2.48 2.48 0 0 1 .75-1.573
         c-2.616-.294-5.35-1.308-5.35-5.806
         a4.58 4.58 0 0 1 1.205-3.16
         a4.23 4.23 0 0 1 .117-3.117
         S6.84 5.087 9.09 6.6
         a11.1 11.1 0 0 1 5.88 0
         c2.25-1.529 3.234-1.205 3.234-1.205
         .435.986.478 2.1.118 3.116
         a4.55 4.55 0 0 1 1.205 3.16
         c0 4.514-2.749 5.513-5.365 5.807
         a2.8 2.8 0 0 1 .794 2.176
         c0 1.573-.015 2.837-.015 3.234
         0 .308.22.676.808.558
         A11.766 11.766 0 0 0 12 .53"
      fill="currentColor"
    />
  </symbol>

  <symbol id="icon-grid" viewBox="0 0 24 24">
    <path
      d="M3 3h8v10H3V3zm2 2v6h4V5H5zm8-2h8v6h-8V3zm2 2v2h4V5h-4zm-2 6h8v10h-8V11zm2 2v6h4v-6h-4zM3 15h8v6H3v-6zm2 2v2h4v-2H5z"
      fill="currentColor"
    />
  </symbol>

  <symbol id="icon-linkedin" viewBox="-143 145 512 512">
    <path
      fill="currentColor"
      d="M329,145h-432c-22.1,0-40,17.9-40,40v432c0,22.1,17.9,40,40,40h432c22.1,0,40-17.9,40-40V185C369,162.9,351.1,145,329,145z M41.4,508.1H-8.5V348.4h49.9V508.1z M15.1,328.4h-0.4c-18.1,0-29.8-12.2-29.8-27.7c0-15.8,12.1-27.7,30.5-27.7c18.4,0,29.7,11.9,30.1,27.7C45.6,316.1,33.9,328.4,15.1,328.4z M241,508.1h-56.6v-82.6c0-21.6-8.8-36.4-28.3-36.4c-14.9,0-23.2,10-27,19.6c-1.4,3.4-1.2,8.2-1.2,13.1v86.3H71.8c0,0,0.7-146.4,0-159.7h56.1v25.1c3.3-11,21.2-26.6,49.8-26.6c35.5,0,63.3,23,63.3,72.4V508.1z"
    />
  </symbol>

  <symbol id="icon-panel-left" viewBox="0 0 32 32">
    <path d="M28 4H4a2 2 0 0 0-2 2v20a2 2 0 0 0 2 2h24a2 2 0 0 0 2-2V6a2 2 0 0 0-2-2Zm0 22H12V6h16Z" />
    <path d="M0 0h32v32H0z" fill="none" />
  </symbol>

  <symbol id="icon-panel-right" viewBox="0 0 21 21">
  <g
    fill="none"
    fill-rule="evenodd"
    stroke="currentColor"
    stroke-linecap="round"
    stroke-linejoin="round"
    transform="translate(3 3)"
  >
    <path d="m2.5.5h10c1.1045695 0 2 .8954305 2 2v10c0 1.1045695-.8954305 2-2 2h-10c-1.1045695 0-2-.8954305-2-2v-10c0-1.1045695.8954305-2 2-2z" />
    <path d="m12.5 11.5v-8" />
  </g>
  </symbol>

  <symbol id="icon-plus" viewBox="0 0 24 24">
    <path d="M0 0h24v24H0z" fill="none" />
    <path
      d="M12 5l0 14M5 12l14 0"
      fill="none"
      stroke="currentColor"
      stroke-width="2"
      stroke-linecap="round"
      stroke-linejoin="round"
    />
  </symbol>

  <symbol id="icon-spinner" viewBox="0 0 24 24">
    <path
      d="M21 12a9 9 0 1 1-6.219-8.56"
      fill="none"
      stroke="currentColor"
      stroke-width="2"
      stroke-linecap="round"
      stroke-linejoin="round"
    />
  </symbol>

  <symbol id="icon-trash" viewBox="0 0 24 24">
    <path 
      d="M18 6L17.1991 18.0129C17.129 19.065 17.0939 19.5911 16.8667 19.99C16.6666 20.3412 16.3648 20.6235 16.0011 20.7998C15.588 21 15.0607 21 14.0062 21H9.99377C8.93927 21 8.41202 21 7.99889 20.7998C7.63517 20.6235 7.33339 20.3412 7.13332 19.99C6.90607 19.5911 6.871 19.065 6.80086 18.0129L6 6M4 6H20M16 6L15.7294 5.18807C15.4671 4.40125 15.3359 4.00784 15.0927 3.71698C14.8779 3.46013 14.6021 3.26132 14.2905 3.13878C13.9376 3 13.523 3 12.6936 3H11.3064C10.477 3 10.0624 3 9.70951 3.13878C9.39792 3.26132 9.12208 3.46013 8.90729 3.71698C8.66405 4.00784 8.53292 4.40125 8.27064 5.18807L8 6" 
      fill="currentColor"
      stroke="currentColor" 
      stroke-width="2" 
      stroke-linecap="round" 
      stroke-linejoin="round" 
    />
  </symbol>

  <symbol id="icon-arrow-up-left" viewBox="0 0 16 16">
    <path
      d="M5 1H4L0 5L4 9H5V6H11C12.6569 6 14 7.34315 14 9C14 10.6569 12.6569 12 11 12H4V14H11C13.7614 14 16 11.7614 16 9C16 6.23858 13.7614 4 11 4H5V1Z"
      fill="currentColor"
    />
  </symbol>
  
  <symbol id="icon-arrow-prev-small" viewBox="0 0 24 24">
    <path
      d="M14.2893 5.70708C13.8988 5.31655 13.2657 5.31655 12.8751 5.70708L7.98768 10.5993C7.20729 11.3805 7.2076 12.6463 7.98837 13.427L12.8787 18.3174C13.2693 18.7079 13.9024 18.7079 14.293 18.3174C14.6835 17.9269 14.6835 17.2937 14.293 16.9032L10.1073 12.7175C9.71678 12.327 9.71678 11.6939 10.1073 11.3033L14.2893 7.12129C14.6799 6.73077 14.6799 6.0976 14.2893 5.70708Z"
      fill="currentColor"
    />
  </symbol>

  <symbol id="icon-folders" viewBox="0 0 24 24">
    <path
      d="M9 3h3l2 2h5a2 2 0 0 1 2 2v7a2 2 0 0 1-2 2h-10a2 2 0 0 1-2-2v-9a2 2 0 0 1 2-2"
      fill="none"
      stroke="currentColor"
      stroke-width="2"
      stroke-linecap="round"
      stroke-linejoin="round"
    />
    <path
      d="M17 16v2a2 2 0 0 1-2 2h-10a2 2 0 0 1-2-2v-9a2 2 0 0 1 2-2h2"
      fill="none"
      stroke="currentColor"
      stroke-width="2"
      stroke-linecap="round"
      stroke-linejoin="round"
    />
  </symbol>

  <symbol id="icon-settings" viewBox="0 0 28 28">
    <path d="M14 9.50006C11.5147 9.50006 9.5 11.5148 9.5 14.0001C9.5 16.4853 11.5147 18.5001 14 18.5001C15.3488 18.5001 16.559 17.9066 17.3838 16.9666C18.0787 16.1746 18.5 15.1365 18.5 14.0001C18.5 13.5401 18.431 13.0963 18.3028 12.6784C17.7382 10.8381 16.0253 9.50006 14 9.50006ZM11 14.0001C11 12.3432 12.3431 11.0001 14 11.0001C15.6569 11.0001 17 12.3432 17 14.0001C17 15.6569 15.6569 17.0001 14 17.0001C12.3431 17.0001 11 15.6569 11 14.0001Z"
      fill="currentColor"/>

    <path d="M21.7093 22.3948L19.9818 21.6364C19.4876 21.4197 18.9071 21.4515 18.44 21.7219C17.9729 21.9924 17.675 22.4693 17.6157 23.0066L17.408 24.8855C17.3651 25.273 17.084 25.5917 16.7055 25.682C14.9263 26.1061 13.0725 26.1061 11.2933 25.682C10.9148 25.5917 10.6336 25.273 10.5908 24.8855L10.3834 23.0093C10.3225 22.4731 10.0112 21.9976 9.54452 21.7281C9.07783 21.4586 8.51117 21.4269 8.01859 21.6424L6.29071 22.4009C5.93281 22.558 5.51493 22.4718 5.24806 22.1859C4.00474 20.8536 3.07924 19.2561 2.54122 17.5137C2.42533 17.1384 2.55922 16.7307 2.8749 16.4977L4.40219 15.3703C4.83721 15.0501 5.09414 14.5415 5.09414 14.0007C5.09414 13.4598 4.83721 12.9512 4.40162 12.6306L2.87529 11.5051C2.55914 11.272 2.42513 10.8638 2.54142 10.4882C3.08038 8.74734 4.00637 7.15163 5.24971 5.82114C5.51684 5.53528 5.93492 5.44941 6.29276 5.60691L8.01296 6.36404C8.50793 6.58168 9.07696 6.54881 9.54617 6.27415C10.0133 6.00264 10.3244 5.52527 10.3844 4.98794L10.5933 3.11017C10.637 2.71803 10.9245 2.39704 11.3089 2.31138C12.19 2.11504 13.0891 2.01071 14.0131 2.00006C14.9147 2.01047 15.8128 2.11485 16.6928 2.31149C17.077 2.39734 17.3643 2.71823 17.4079 3.11017L17.617 4.98937C17.7116 5.85221 18.4387 6.50572 19.3055 6.50663C19.5385 6.507 19.769 6.45838 19.9843 6.36294L21.7048 5.60568C22.0626 5.44818 22.4807 5.53405 22.7478 5.81991C23.9912 7.1504 24.9172 8.74611 25.4561 10.487C25.5723 10.8623 25.4386 11.2703 25.1228 11.5035L23.5978 12.6297C23.1628 12.95 22.9 13.4586 22.9 13.9994C22.9 14.5403 23.1628 15.0489 23.5988 15.3698L25.1251 16.4965C25.441 16.7296 25.5748 17.1376 25.4586 17.5131C24.9198 19.2536 23.9944 20.8492 22.7517 22.1799C22.4849 22.4657 22.0671 22.5518 21.7093 22.3948ZM16.263 22.1966C16.4982 21.4685 16.9889 20.8288 17.6884 20.4238C18.5702 19.9132 19.6536 19.8547 20.5841 20.2627L21.9281 20.8526C22.791 19.8538 23.4593 18.7013 23.8981 17.4552L22.7095 16.5778L22.7086 16.5771C21.898 15.98 21.4 15.0277 21.4 13.9994C21.4 12.9719 21.8974 12.0195 22.7073 11.4227L22.7085 11.4218L23.8957 10.545C23.4567 9.2988 22.7881 8.14636 21.9248 7.1477L20.5922 7.73425L20.5899 7.73527C20.1844 7.91463 19.7472 8.00722 19.3039 8.00663C17.6715 8.00453 16.3046 6.77431 16.1261 5.15465L16.1259 5.15291L15.9635 3.69304C15.3202 3.57328 14.6677 3.50872 14.013 3.50017C13.3389 3.50891 12.6821 3.57367 12.0377 3.69328L11.8751 5.15452C11.7625 6.16272 11.1793 7.05909 10.3019 7.56986C9.41937 8.0856 8.34453 8.14844 7.40869 7.73694L6.07273 7.14893C5.20949 8.14751 4.54092 9.29983 4.10196 10.5459L5.29181 11.4233C6.11115 12.0269 6.59414 12.9837 6.59414 14.0007C6.59414 15.0173 6.11142 15.9742 5.29237 16.5776L4.10161 17.4566C4.54002 18.7044 5.2085 19.8585 6.07205 20.8587L7.41742 20.2682C8.34745 19.8613 9.41573 19.9215 10.2947 20.4292C11.174 20.937 11.7593 21.832 11.8738 22.84L11.8744 22.8445L12.0362 24.3088C13.3326 24.5638 14.6662 24.5638 15.9626 24.3088L16.1247 22.8418C16.1491 22.6217 16.1955 22.4055 16.263 22.1966Z" 
    fill="currentColor"
    />
  </symbol>

  <symbol id="icon-merge" viewBox="0 0 32 32">
    <path
      d="M25 4v4.101a7.96 7.96 0 0 1-2.343 5.657l-3.9 3.899a5.7 5.7 0 0 0-1.146 1.612 7.2 7.2 0 0 0-1.003-2.168 8.5 8.5 0 0 1 .734-.858l3.9-3.899A5.96 5.96 0 0 0 23 8.101V4h2ZM17 25.586v-3.687a7.96 7.96 0 0 0-2.343-5.657l-3.9-3.899A5.96 5.96 0 0 1 9 8.101V4H7v4.101a7.96 7.96 0 0 0 2.343 5.657l3.9 3.899A5.96 5.96 0 0 1 15 21.899v3.687l-2.293-2.293-1.414 1.414L16 29.414l4.707-4.707-1.414-1.414L17 25.586Z"
      fill="currentColor"
    />
  </symbol>
</svg>
