<svg width="401" height="75" viewBox="0 0 401 75" fill="none" xmlns="http://www.w3.org/2000/svg">
<path d="M50 0V12.5H12.5V0H50ZM0 12.5H12.5V62.5H0V12.5ZM50 75H12.5V62.5H37.5V50H25V37.5H50V75ZM58.5 0H71V62.5H58.5V0ZM96 0H108.5V62.5H96V0ZM71 62.5H96V75H71V62.5ZM154.5 12.5H129.5V0H154.5V12.5ZM117 12.5H129.5V37.5H154.5V12.5H167V75H154.5V50H129.5V75H117V12.5ZM213 12.5H225.5V37.5H213V12.5ZM175.5 0H213V12.5H188V37.5H213V50H188V75H175.5V0ZM213 50H225.5V75H213V50ZM271.5 12.5H284V62.5H271.5V12.5ZM234 0H271.5V12.5H246.5V62.5H271.5V75H234V0ZM330 12.5H305V0H330V12.5ZM292.5 12.5H305V37.5H330V12.5H342.5V75H330V50H305V75H292.5V12.5ZM388.5 12.5H363.5V0H388.5V12.5ZM351 12.5H363.5V62.5H351V12.5ZM388.5 12.5H401V62.5H388.5V12.5ZM363.5 62.5H388.5V75H363.5V62.5Z" fill="#D9D9D9"/>
</svg>
